<svg xmlns="http://www.w3.org/2000/svg"  viewBox="0 0 100 100" width="100px" height="100px"><polygon fill="#b3b2c3" points="54,84 50,90 46,84 46,29.5 54,29.5"/><path fill="#1f212b" d="M50,91c-0.334,0-0.646-0.167-0.832-0.445l-4-6C45.059,84.391,45,84.197,45,84V29.5	c0-0.553,0.447-1,1-1h8c0.553,0,1,0.447,1,1V84c0,0.197-0.059,0.391-0.168,0.555l-4,6C50.646,90.833,50.334,91,50,91z M47,83.697	l3,4.5l3-4.5V30.5h-6V83.697z"/><circle cx="50" cy="21" r="11" fill="#f15b6c"/><path fill="#1f212b" d="M50,33c-6.617,0-12-5.383-12-12S43.383,9,50,9s12,5.383,12,12S56.617,33,50,33z M50,11	c-5.514,0-10,4.486-10,10s4.486,10,10,10s10-4.486,10-10S55.514,11,50,11z"/><path fill="#1f212b" d="M51.5,15.181c-0.038,0-0.076-0.004-0.115-0.014c-0.938-0.221-1.832-0.221-2.77,0	c-0.271,0.065-0.538-0.104-0.602-0.371c-0.063-0.269,0.103-0.538,0.371-0.602c1.088-0.258,2.143-0.258,3.23,0	c0.269,0.063,0.435,0.333,0.371,0.602C51.932,15.025,51.727,15.181,51.5,15.181z"/><path fill="#1f212b" d="M56.475,21.999c-0.013,0-0.025-0.001-0.038-0.002c-0.275-0.021-0.481-0.26-0.461-0.535l0.001-0.003	C55.988,21.307,56,21.155,56,21c0-2.051-1.035-3.939-2.77-5.051c-0.232-0.148-0.301-0.458-0.151-0.69	c0.15-0.233,0.461-0.3,0.69-0.151C55.792,16.403,57,18.606,57,21c0,0.181-0.013,0.357-0.026,0.535	C56.953,21.798,56.734,21.999,56.475,21.999z"/></svg>